<?xml version="1.0" encoding="UTF-8" standalone="no"?>
<!-- Created with Inkscape (http://www.inkscape.org/) -->

<svg
   width="9.9507875mm"
   height="52.51926mm"
   viewBox="0 0 9.9507875 52.51926"
   version="1.1"
   id="svg6514"
   inkscape:version="1.2.1 (9c6d41e410, 2022-07-14)"
   sodipodi:docname="pen-icon.svg"
   xmlns:inkscape="http://www.inkscape.org/namespaces/inkscape"
   xmlns:sodipodi="http://sodipodi.sourceforge.net/DTD/sodipodi-0.dtd"
   xmlns="http://www.w3.org/2000/svg"
   xmlns:svg="http://www.w3.org/2000/svg">
  <sodipodi:namedview
     id="namedview6516"
     pagecolor="#000000"
     bordercolor="#666666"
     borderopacity="1.0"
     inkscape:showpageshadow="2"
     inkscape:pageopacity="0"
     inkscape:pagecheckerboard="0"
     inkscape:deskcolor="#d1d1d1"
     inkscape:document-units="mm"
     showgrid="false"
     inkscape:zoom="3.659624"
     inkscape:cx="75.007706"
     inkscape:cy="186.35794"
     inkscape:window-width="2560"
     inkscape:window-height="1369"
     inkscape:window-x="2552"
     inkscape:window-y="-8"
     inkscape:window-maximized="1"
     inkscape:current-layer="layer1" />
  <defs
     id="defs6511" />
  <g
     inkscape:label="Ebene 1"
     inkscape:groupmode="layer"
     id="layer1"
     transform="translate(-1.96521,-29.84358)">
    <path
       id="path6484"
       style="fill:#464646;stroke:none;stroke-width:8.53734;paint-order:markers stroke fill;fill-opacity:1"
       d="m 2.430373,30.30875 a 1.5875,1.5875 0 0 0 -0.464802,1.12252 v 0.35737 l 7e-6,1.76199 -3.68e-4,1.65786 h 9.950771 l -3.6e-4,-1.65785 v -1.762 -0.35737 a 1.5875,1.5875 0 0 0 -1.58769,-1.58769 H 3.553266 a 1.5875,1.5875 0 0 0 -1.122893,0.46517 z m -0.464795,7.88548 -4e-6,29.21068 9.950047,1e-5 V 38.19424 Z m 3.63e-4,32.19643 -3.64e-4,0.58575 v 0.49695 l -2e-6,1.84239 2.487694,5.27721 1.421072,3.01571 a 1.2309127,1.5076589 0 0 0 2.13215,3.7e-4 l 1.4218,-3.01571 2.48697,-5.27722 v -1.82996 c -7e-5,-0.004 8.7e-4,-0.009 7.2e-4,-0.0132 l 10e-6,-1.08233 z" />
  </g>
</svg>
