<?xml version="1.0" encoding="UTF-8" standalone="no"?>
<!-- Created with Inkscape (http://www.inkscape.org/) -->

<svg
   width="7.3985152mm"
   height="48.20385mm"
   viewBox="0 0 7.3985152 48.20385"
   version="1.1"
   id="svg302"
   inkscape:version="1.2.1 (9c6d41e410, 2022-07-14)"
   sodipodi:docname="pen-icon.svg"
   xmlns:inkscape="http://www.inkscape.org/namespaces/inkscape"
   xmlns:sodipodi="http://sodipodi.sourceforge.net/DTD/sodipodi-0.dtd"
   xmlns="http://www.w3.org/2000/svg"
   xmlns:svg="http://www.w3.org/2000/svg">
  <sodipodi:namedview
     id="namedview304"
     pagecolor="#000000"
     bordercolor="#666666"
     borderopacity="1.0"
     inkscape:showpageshadow="2"
     inkscape:pageopacity="0"
     inkscape:pagecheckerboard="0"
     inkscape:deskcolor="#d1d1d1"
     inkscape:document-units="mm"
     showgrid="false"
     inkscape:zoom="2.8284271"
     inkscape:cx="59.750523"
     inkscape:cy="159.09903"
     inkscape:window-width="2560"
     inkscape:window-height="1369"
     inkscape:window-x="2552"
     inkscape:window-y="-8"
     inkscape:window-maximized="1"
     inkscape:current-layer="layer1" />
  <defs
     id="defs299" />
  <g
     inkscape:label="Ebene 1"
     inkscape:groupmode="layer"
     id="layer1"
     transform="translate(-49.322069,-112.10742)">
    <path
       id="rect880"
       style="fill:#ffffff;stroke-width:0.226273"
       d="m 50.041585,112.10742 c -0.398491,0 -0.719515,0.25375 -0.719515,0.56905 v 4.14667 c 0,0.31529 0.321024,0.56903 0.719515,0.56903 h 5.959485 c 0.398488,0 0.719514,-0.25374 0.719514,-0.56903 v -4.14667 c 0,-0.3153 -0.321026,-0.56905 -0.719514,-0.56905 z m 0,6.34092 c -0.398491,0 -0.719515,0.30018 -0.719515,0.67281 v 35.17794 c 0,6.7e-4 -3e-6,8.7e-4 0,0.002 1.16e-4,0.0211 0.0016,0.0435 0.0037,0.067 0.06641,0.76442 1.120489,2.75668 1.349821,3.14315 0.259915,0.43801 1.825625,2.80003 2.345455,2.80003 0.519832,0 2.086072,-2.36202 2.345988,-2.80003 0.229329,-0.38647 1.283404,-2.37873 1.349818,-3.14315 0.0021,-0.0235 0.0036,-0.0458 0.0037,-0.067 4e-6,-6.8e-4 -2e-6,-8.8e-4 0,-0.002 v -35.17794 c 0,-0.37263 -0.321027,-0.67281 -0.719515,-0.67281 z" />
  </g>
</svg>
