<?xml version="1.0" standalone="no"?>
<!DOCTYPE svg PUBLIC "-//W3C//DTD SVG 20010904//EN"
 "http://www.w3.org/TR/2001/REC-SVG-20010904/DTD/svg10.dtd">
<svg version="1.0" xmlns="http://www.w3.org/2000/svg"
 width="700.000000pt" height="700.000000pt" viewBox="0 0 700.000000 700.000000"
 preserveAspectRatio="xMidYMid meet">
<metadata>
Created by potrace 1.14, written by Peter Selinger 2001-2017
</metadata>
<g transform="translate(0.000000,700.000000) scale(0.100000,-0.100000)"
fill="#000000" stroke="none">
<path d="M3810 6399 c-19 -4 -48 -10 -65 -14 -54 -11 -189 -83 -241 -127 -93
-79 -168 -200 -199 -318 -72 -280 66 -581 325 -707 98 -48 174 -66 280 -66
325 1 602 268 614 594 3 75 -9 154 -34 230 -19 56 -70 149 -96 176 -7 7 -21
23 -31 36 -59 73 -190 153 -298 182 -66 18 -201 25 -255 14z"/>
<path d="M2055 6079 c-118 -27 -215 -99 -277 -207 -75 -132 -76 -287 -1 -424
32 -58 1846 -1877 1908 -1913 131 -76 297 -79 427 -8 34 19 272 250 804 782
704 704 758 760 790 826 76 154 54 335 -57 469 -43 51 -137 111 -204 131 -112
32 -254 12 -348 -49 -29 -18 -304 -286 -617 -600 -311 -311 -569 -566 -574
-566 -5 0 -340 331 -745 736 -405 405 -756 750 -781 766 -91 58 -219 81 -325
57z"/>
<path d="M2990 3511 c-36 -9 -85 -28 -110 -43 -26 -15 -360 -341 -793 -775
-648 -649 -797 -803 -797 -827 0 -3 -5 -17 -11 -33 -6 -15 -10 -28 -9 -28 1 0
-4 -13 -10 -30 -16 -43 -14 -154 5 -218 20 -68 79 -161 131 -205 141 -120 356
-136 508 -38 28 19 306 288 617 600 312 311 570 566 575 566 5 0 263 -255 574
-566 311 -311 583 -579 606 -594 113 -79 297 -93 416 -33 223 111 310 359 203
578 -32 66 -80 117 -786 823 -520 520 -769 762 -803 781 -97 55 -207 70 -316
42z"/>
</g>
</svg>
